<svg xmlns="http://www.w3.org/2000/svg" version="1.1" height="704" width="400" viewBox="0 0 400 704" class="diagram" text-anchor="middle" font-family="monospace" font-size="13px" stroke-linecap="round">
    <path d="M 16,208 L 16,240" fill="none" stroke="black"></path>
    <path d="M 40,304 L 40,384" fill="none" stroke="black"></path>
    <path d="M 64,64 L 64,88" fill="none" stroke="black"></path>
    <path d="M 64,128 L 64,184" fill="none" stroke="black"></path>
    <path d="M 64,320 L 64,336" fill="none" stroke="black"></path>
    <path d="M 64,464 L 64,480" fill="none" stroke="black"></path>
    <path d="M 80,256 L 80,272" fill="none" stroke="black"></path>
    <path d="M 88,352 L 88,368" fill="none" stroke="black"></path>
    <path d="M 96,160 L 96,184" fill="none" stroke="black"></path>
    <path d="M 120,416 L 120,440" fill="none" stroke="black"></path>
    <path d="M 120,496 L 120,648" fill="none" stroke="black"></path>
    <path d="M 136,208 L 136,240" fill="none" stroke="black"></path>
    <path d="M 152,320 L 152,336" fill="none" stroke="black"></path>
    <path d="M 168,352 L 168,368" fill="none" stroke="black"></path>
    <path d="M 176,464 L 176,480" fill="none" stroke="black"></path>
    <path d="M 200,80 L 200,96" fill="none" stroke="black"></path>
    <path d="M 216,272 L 216,336" fill="none" stroke="black"></path>
    <path d="M 232,544 L 232,568" fill="none" stroke="black"></path>
    <path d="M 240,336 L 240,400" fill="none" stroke="black"></path>
    <path d="M 248,112 L 248,264" fill="none" stroke="black"></path>
    <path d="M 248,544 L 248,568" fill="none" stroke="black"></path>
    <path d="M 272,112 L 272,264" fill="none" stroke="black"></path>
    <path d="M 328,80 L 328,96" fill="none" stroke="black"></path>
    <path d="M 344,272 L 344,336" fill="none" stroke="black"></path>
    <path d="M 344,400 L 344,520" fill="none" stroke="black"></path>
    <path d="M 344,536 L 344,648" fill="none" stroke="black"></path>
    <path d="M 360,320 L 360,400" fill="none" stroke="black"></path>
    <path d="M 376,192 L 376,512" fill="none" stroke="black"></path>
    <path d="M 24,32 L 96,32" fill="none" stroke="black"></path>
    <path d="M 24,64 L 96,64" fill="none" stroke="black"></path>
    <path d="M 216,64 L 312,64" fill="none" stroke="black"></path>
    <path d="M 32,96 L 96,96" fill="none" stroke="black"></path>
    <path d="M 216,112 L 312,112" fill="none" stroke="black"></path>
    <path d="M 32,128 L 96,128" fill="none" stroke="black"></path>
    <path d="M 112,144 L 232,144" fill="none" stroke="black"></path>
    <path d="M 288,176 L 360,176" fill="none" stroke="black"></path>
    <path d="M 32,192 L 120,192" fill="none" stroke="black"></path>
    <path d="M 32,256 L 120,256" fill="none" stroke="black"></path>
    <path d="M 216,272 L 344,272" fill="none" stroke="black"></path>
    <path d="M 56,288 L 64,288" fill="none" stroke="black"></path>
    <path d="M 96,288 L 208,288" fill="none" stroke="black"></path>
    <path d="M 80,304 L 136,304" fill="none" stroke="black"></path>
    <path d="M 160,320 L 216,320" fill="none" stroke="black"></path>
    <path d="M 344,320 L 360,320" fill="none" stroke="black"></path>
    <path d="M 216,336 L 344,336" fill="none" stroke="black"></path>
    <path d="M 80,352 L 136,352" fill="none" stroke="black"></path>
    <path d="M 176,368 L 240,368" fill="none" stroke="black"></path>
    <path d="M 104,384 L 152,384" fill="none" stroke="black"></path>
    <path d="M 56,400 L 104,400" fill="none" stroke="black"></path>
    <path d="M 240,400 L 360,400" fill="none" stroke="black"></path>
    <path d="M 80,448 L 160,448" fill="none" stroke="black"></path>
    <path d="M 80,496 L 160,496" fill="none" stroke="black"></path>
    <path d="M 136,528 L 216,528" fill="none" stroke="black"></path>
    <path d="M 264,528 L 360,528" fill="none" stroke="black"></path>
    <path d="M 160,576 L 328,576" fill="none" stroke="black"></path>
    <path d="M 136,624 L 304,624" fill="none" stroke="black"></path>
    <path d="M 48,656 L 200,656" fill="none" stroke="black"></path>
    <path d="M 256,656 L 392,656" fill="none" stroke="black"></path>
    <path d="M 32,688 L 184,688" fill="none" stroke="black"></path>
    <path d="M 240,688 L 376,688" fill="none" stroke="black"></path>
    <path d="M 32,688 L 48,656" fill="none" stroke="black"></path>
    <path d="M 136,624 L 160,576" fill="none" stroke="black"></path>
    <path d="M 184,688 L 200,656" fill="none" stroke="black"></path>
    <path d="M 240,688 L 256,656" fill="none" stroke="black"></path>
    <path d="M 304,624 L 328,576" fill="none" stroke="black"></path>
    <path d="M 376,688 L 392,656" fill="none" stroke="black"></path>
    <path d="M 24,32 C 15.16936,32 8,39.16936 8,48" fill="none" stroke="black"></path>
    <path d="M 96,32 C 104.83064,32 112,39.16936 112,48" fill="none" stroke="black"></path>
    <path d="M 24,64 C 15.16936,64 8,56.83064 8,48" fill="none" stroke="black"></path>
    <path d="M 96,64 C 104.83064,64 112,56.83064 112,48" fill="none" stroke="black"></path>
    <path d="M 216,64 C 207.16936,64 200,71.16936 200,80" fill="none" stroke="black"></path>
    <path d="M 312,64 C 320.83064,64 328,71.16936 328,80" fill="none" stroke="black"></path>
    <path d="M 32,96 C 23.16936,96 16,103.16936 16,112" fill="none" stroke="black"></path>
    <path d="M 96,96 C 104.83064,96 112,103.16936 112,112" fill="none" stroke="black"></path>
    <path d="M 216,112 C 207.16936,112 200,104.83064 200,96" fill="none" stroke="black"></path>
    <path d="M 312,112 C 320.83064,112 328,104.83064 328,96" fill="none" stroke="black"></path>
    <path d="M 32,128 C 23.16936,128 16,120.83064 16,112" fill="none" stroke="black"></path>
    <path d="M 96,128 C 104.83064,128 112,120.83064 112,112" fill="none" stroke="black"></path>
    <path d="M 112,144 C 103.16936,144 96,151.16936 96,160" fill="none" stroke="black"></path>
    <path d="M 232,144 C 240.83064,144 248,136.83064 248,128" fill="none" stroke="black"></path>
    <path d="M 288,176 C 279.16936,176 272,168.83064 272,160" fill="none" stroke="black"></path>
    <path d="M 360,176 C 368.83064,176 376,183.16936 376,192" fill="none" stroke="black"></path>
    <path d="M 32,192 C 23.16936,192 16,199.16936 16,208" fill="none" stroke="black"></path>
    <path d="M 120,192 C 128.83064,192 136,199.16936 136,208" fill="none" stroke="black"></path>
    <path d="M 32,256 C 23.16936,256 16,248.83064 16,240" fill="none" stroke="black"></path>
    <path d="M 120,256 C 128.83064,256 136,248.83064 136,240" fill="none" stroke="black"></path>
    <path d="M 56,288 C 47.16936,288 40,295.16936 40,304" fill="none" stroke="black"></path>
    <path d="M 64,288 C 72.83064,288 80,280.83064 80,272" fill="none" stroke="black"></path>
    <path d="M 96,288 C 87.16936,288 80,280.83064 80,272" fill="none" stroke="black"></path>
    <path d="M 80,304 C 71.16936,304 64,311.16936 64,320" fill="none" stroke="black"></path>
    <path d="M 136,304 C 144.83064,304 152,311.16936 152,320" fill="none" stroke="black"></path>
    <path d="M 152,336 C 160.83064,336 168,343.16936 168,352" fill="none" stroke="black"></path>
    <path d="M 80,352 C 71.16936,352 64,344.83064 64,336" fill="none" stroke="black"></path>
    <path d="M 136,352 C 144.83064,352 152,344.83064 152,336" fill="none" stroke="black"></path>
    <path d="M 104,384 C 95.16936,384 88,376.83064 88,368" fill="none" stroke="black"></path>
    <path d="M 152,384 C 160.83064,384 168,376.83064 168,368" fill="none" stroke="black"></path>
    <path d="M 56,400 C 47.16936,400 40,392.83064 40,384" fill="none" stroke="black"></path>
    <path d="M 104,400 C 112.83064,400 120,407.16936 120,416" fill="none" stroke="black"></path>
    <path d="M 136,400 C 127.16936,400 120,407.16936 120,416" fill="none" stroke="black"></path>
    <path d="M 136,400 C 144.83064,400 152,392.83064 152,384" fill="none" stroke="black"></path>
    <path d="M 80,448 C 71.16936,448 64,455.16936 64,464" fill="none" stroke="black"></path>
    <path d="M 160,448 C 168.83064,448 176,455.16936 176,464" fill="none" stroke="black"></path>
    <path d="M 80,496 C 71.16936,496 64,488.83064 64,480" fill="none" stroke="black"></path>
    <path d="M 160,496 C 168.83064,496 176,488.83064 176,480" fill="none" stroke="black"></path>
    <path d="M 136,528 C 127.16936,528 120,520.83064 120,512" fill="none" stroke="black"></path>
    <path d="M 216,528 C 224.83064,528 232,535.16936 232,544" fill="none" stroke="black"></path>
    <path d="M 264,528 C 255.16936,528 248,535.16936 248,544" fill="none" stroke="black"></path>
    <path d="M 360,528 C 368.83064,528 376,520.83064 376,512" fill="none" stroke="black"></path>
    <polygon class="arrowhead" points="352,648 340,642.4 340,653.6" fill="black" transform="rotate(90,344,648)"></polygon>
    <path class="jump" d="M 344,536 C 350,536 350,520 344,520" fill="none" stroke="black"></path>
    <polygon class="arrowhead" points="280,264 268,258.4 268,269.6" fill="black" transform="rotate(90,272,264)"></polygon>
    <polygon class="arrowhead" points="256,568 244,562.4 244,573.6" fill="black" transform="rotate(90,248,568)"></polygon>
    <polygon class="arrowhead" points="256,264 244,258.4 244,269.6" fill="black" transform="rotate(90,248,264)"></polygon>
    <polygon class="arrowhead" points="240,568 228,562.4 228,573.6" fill="black" transform="rotate(90,232,568)"></polygon>
    <polygon class="arrowhead" points="216,288 204,282.4 204,293.6" fill="black" transform="rotate(0,208,288)"></polygon>
    <polygon class="arrowhead" points="184,368 172,362.4 172,373.6" fill="black" transform="rotate(180,176,368)"></polygon>
    <polygon class="arrowhead" points="168,320 156,314.4 156,325.6" fill="black" transform="rotate(180,160,320)"></polygon>
    <polygon class="arrowhead" points="128,648 116,642.4 116,653.6" fill="black" transform="rotate(90,120,648)"></polygon>
    <polygon class="arrowhead" points="128,440 116,434.4 116,445.6" fill="black" transform="rotate(90,120,440)"></polygon>
    <polygon class="arrowhead" points="104,184 92,178.4 92,189.6" fill="black" transform="rotate(90,96,184)"></polygon>
    <polygon class="arrowhead" points="72,184 60,178.4 60,189.6" fill="black" transform="rotate(90,64,184)"></polygon>
    <polygon class="arrowhead" points="72,88 60,82.4 60,93.6" fill="black" transform="rotate(90,64,88)"></polygon>
    <g class="text">
      <text x="60" y="52">Artifact</text>
      <text x="264" y="84">Credentials</text>
      <text x="64" y="116">Statement</text>
      <text x="180" y="132">cose</text>
      <text x="220" y="132">sign</text>
      <text x="300" y="132">cose</text>
      <text x="348" y="132">verify</text>
      <text x="76" y="212">Signed</text>
      <text x="80" y="228">Statement</text>
      <text x="76" y="244">(COSE_Sign1)</text>
      <text x="276" y="292">Transparency</text>
      <text x="104" y="324">Receipt</text>
      <text x="264" y="324">Service</text>
      <text x="300" y="356">Transparency</text>
      <text x="128" y="372">Receipt</text>
      <text x="280" y="388">Service</text>
      <text x="120" y="468">Transparent</text>
      <text x="120" y="484">Statement</text>
      <text x="188" y="596">Verify</text>
      <text x="264" y="596">Transparent</text>
      <text x="232" y="612">Statement</text>
      <text x="80" y="676">Collect</text>
      <text x="148" y="676">Receipts</text>
      <text x="300" y="676">Replay</text>
      <text x="344" y="676">Log</text>
    </g>
  </svg>